<?xml version="1.0" encoding="utf-8"?>
<!-- Generator: Adobe Illustrator 24.2.0, SVG Export Plug-In . SVG Version: 6.00 Build 0)  -->
<svg version="1.1" id="Layer_1" xmlns="http://www.w3.org/2000/svg" xmlns:xlink="http://www.w3.org/1999/xlink" x="0px" y="0px"
	 viewBox="0 0 309.312 309.312" enable-background="new 0 0 309.312 309.312" xml:space="preserve">
<g>
	<path fill="#0068FF" d="M-1746.41-23.804c95.17-0.01,190.34-0.01,285.51,0c0.03,10.64,0.23,21.46-2.56,31.82
		c-2.26,8.27-6.01,16.21-11.22,23.03c-8.09,8.99-15.47,18.57-23.03,28c-56.98,71.45-113.97,142.89-170.95,214.34
		c69.25,0.01,138.51,0,207.76,0.01c-0.06,11.44,0.14,22.9-0.1,34.34c-0.6,12.23-11.7,22.69-23.94,22.62
		c-89.87,0.08-179.75,0.02-269.62,0.03c0.17-10.56-0.68-21.27,1.58-31.68c1.88-8.81,6.46-16.85,12.27-23.66
		c64.12-79.26,128.22-158.52,192.33-237.78c-66.01-0.03-132.02,0.01-198.03-0.02C-1746.4,16.896-1746.42-3.454-1746.41-23.804z"/>
	<path fill="#0068FF" d="M-1118.33-23.804c20.4-0.01,40.79-0.01,61.18,0c0,118.06,0.01,236.13,0,354.2
		c-13.96-0.06-27.93,0.09-41.88-0.08c-10.62-0.28-19.74-10.07-19.3-20.68C-1118.33,198.486-1118.33,87.336-1118.33-23.804z"/>
	<g>
		<path fill="#0068FF" d="M-882.68,53.076c34.79-1.73,70.01,10.11,96.61,32.61c24.78,20.68,42.11,50.13,47.84,81.92
			c6.03,32.43,0.19,66.94-16.46,95.44c-16.76,29.14-44.36,51.85-76.21,62.61c-34.53,11.87-73.69,9.54-106.51-6.49
			c-31.35-15.09-56.66-42.27-69.37-74.66c-13.96-34.97-12.93-75.59,2.9-109.76c12.97-28.42,35.76-52.17,63.57-66.38
			C-922.5,59.186-902.69,53.966-882.68,53.076z M-887.51,111.366c-28.95,3.68-54.94,24.06-65.49,51.26
			c-7.76,19.36-7.71,41.7,0.1,61.04c6.4,16.08,18.06,29.99,32.72,39.17c15.36,9.74,34.01,14.05,52.08,12.23
			c14.67-1.41,28.92-6.88,40.77-15.64c14.6-10.69,25.51-26.32,30.46-43.73c5.38-18.69,3.88-39.29-4.29-56.95
			c-7.89-17.28-21.95-31.65-39.06-39.88C-854.78,111.736-871.47,109.186-887.51,111.366z"/>
	</g>
	<g>
		<path fill="#0068FF" d="M-1363.88,66.836c24.25-10.96,51.69-14.64,77.99-10.68c22.13,3.27,43.4,12.06,61.46,25.25
			c-0.01-6.36-0.01-12.72,0-19.08c19.05,0,38.11-0.01,57.16,0c-0.01,89.36,0,178.71,0,268.06c-11.55-0.07-23.11,0.16-34.66-0.11
			c-12.32-0.68-22.59-11.88-22.58-24.16c-29.14,21.46-66.84,30.72-102.62,25.27c-30.35-4.35-59.01-19.22-80.18-41.39
			c-20.47-21.18-33.9-49.05-37.6-78.29c-3.61-27.61,1.23-56.28,13.97-81.06C-1416.68,102.596-1392.61,79.676-1363.88,66.836z
			 M-1311.64,112.096c-29.02,1.43-56.32,19.74-68.84,45.93c-9.12,18.55-10.7,40.61-4.45,60.31c5.03,16.07,15.21,30.44,28.63,40.59
			c13.76,10.5,30.92,16.45,48.23,16.66c17.61,0.35,35.29-5.16,49.52-15.56c14.64-10.53,25.6-26.06,30.61-43.38
			c4.97-16.99,4.24-35.6-2.13-52.11c-5.77-15.08-16.13-28.35-29.34-37.62C-1274.46,116.206-1293.22,110.946-1311.64,112.096z"/>
	</g>
</g>
<g>
	<g>
		<path fill="#012A66" d="M-713-191.844h1.85c-0.32,0.51-0.98,1.52-1.31,2.03l-0.54-0.52V-191.844z"/>
		<path fill="#012A66" d="M-713,499.446l0.77-0.26c0.3,0.35,0.91,1.06,1.21,1.41l-0.49,0.56H-713V499.446z"/>
	</g>
	<g>
		<path fill="#0068FE" d="M-711.15-191.844h196.35l2.16,0.53c-13.14,9.27-26.07,18.97-37.55,30.28
			c-23.75,23.08-42.05,51.33-55.61,81.44c-22.26,49.06-32.43,103-33.74,156.68c-1.07,43.19,4.45,86.54,16.47,128.04
			c7.94,27.65,18.85,54.6,34.17,79.02c3.63,6.03,8.37,11.54,10.39,18.42c3.08,10.01,1.46,20.75-1.1,30.7
			c-4,15.18-12.55,28.79-23.05,40.32c-1.92,1.66-0.67,3.93,0.96,5.19c5.93,6.12,11.94,12.15,17.85,18.3
			c10.88,12.09,22.75,23.24,33.93,35.05c7.78,8.86,16.5,16.84,24.53,25.48c8.02,9.27,17.25,17.4,25.27,26.67
			c4.66,5.48,10.6,9.83,14.58,15.89c-59.48,0.2-118.97,0.03-178.45,0.09c-15.69-0.42-31.35,0.81-47.03,0.34
			c-0.3-0.35-0.91-1.06-1.21-1.41c-0.39-37-0.05-74.03-0.17-111.04c0.66-11.65,0.36-23.33,0.42-34.99c0-137.99,0-275.98,0-413.97
			c0.16-6.03-0.19-12.05-0.42-18.07c-0.05-36.98,0.09-73.96-0.06-110.93C-712.13-190.324-711.47-191.334-711.15-191.844z"/>
	</g>
	<g>
		<path fill="#C1C2C2" d="M-514.8-191.844h493.22l-0.49,0.67c-13.63-0.32-27.26-0.11-40.89-0.14c-9.01,0.74-18.04,0.41-27.07,0.47
			c-136.98,0-273.96,0-410.94,0c-3.89-0.04-7.84,0.36-11.67-0.47L-514.8-191.844z"/>
	</g>
	<g>
		<path fill="#454647" d="M-21.58-191.844H-20v1.72c-0.52-0.27-1.55-0.79-2.07-1.05L-21.58-191.844z"/>
	</g>
	<g>
		<g>
			<path fill="#FDFEFE" d="M-550.19-161.034c11.48-11.31,24.41-21.01,37.55-30.28c3.83,0.83,7.78,0.43,11.67,0.47
				c136.98,0,273.96,0,410.94,0c9.03-0.06,18.06,0.27,27.07-0.47c13.63,0.03,27.26-0.18,40.89,0.14c0.52,0.26,1.55,0.78,2.07,1.05
				v510.64c-11.26,12.33-23.45,23.87-36.95,33.75c-30.59,22.47-65.63,38.43-101.94,49.18c-43.17,12.57-88.18,18.43-133.11,18.6
				c-45.71-0.3-91.51-6.5-135.32-19.69c-29.23-8.85-57.38-21.36-83.23-37.65c-2.56-2.07-5.59-0.28-8.16,0.72
				c-26.13,10.83-54.74,15.9-82.99,13.35c-1.63-1.26-2.88-3.53-0.96-5.19c10.5-11.53,19.05-25.14,23.05-40.32
				c2.56-9.95,4.18-20.69,1.1-30.7c-2.02-6.88-6.76-12.39-10.39-18.42c-15.32-24.42-26.23-51.37-34.17-79.02
				c-12.02-41.5-17.54-84.85-16.47-128.04c1.31-53.68,11.48-107.62,33.74-156.68C-592.24-109.704-573.94-137.954-550.19-161.034z
				 M-254.2,35.146c-0.8,2.59-0.45,5.33-0.43,8c0.03,50.31-0.03,100.62,0.03,150.92c-0.05,3.96,1.9,8.34,5.94,9.58
				c6.08,1.83,12.5,0.42,18.73,0.97c2.21,0.47,4.36-1.17,4.15-3.5c-0.2-54.65-0.06-109.32-0.07-163.98c0.4-1.94-1.75-2.28-3.13-2.11
				C-237.39,35.076-245.8,34.906-254.2,35.146z M-549.44,39.196c-0.05,7.95-0.01,15.9-0.04,23.85c-0.12,2.3,2.54,3.03,4.37,2.92
				c23.38,0.1,46.77-0.53,70.14-0.03c5.86,0.37,11.75-0.55,17.57,0.35c-3.57,5.46-8.02,10.26-11.97,15.43
				c-25.41,31.64-50.77,63.32-76.32,94.86c-5.8,7.03-8.82,16.41-7.61,25.51c0.4,1.98,2.59,2.65,4.37,2.53
				c39.62-0.01,79.25-0.02,118.88,0c3.91,0,8.16-0.6,11.15-3.37c5.41-5.28,3.26-13.44,3.82-20.16c0.57-2.84-2.48-4.21-4.84-3.88
				c-27.03,0-54.06,0.01-81.08,0c-3.67-0.04-7.36,0.24-11.01-0.23c3.18-4.99,7.17-9.39,10.75-14.08
				c26.02-32.68,51.76-65.59,78-98.09c5.08-6.41,7.75-14.49,8.11-22.62c-0.01-1.75,0.58-4.81-1.78-5.24
				c-4.65-0.57-9.35-0.11-14.02-0.13c-37.99-0.01-75.99,0.12-113.98-0.11C-546.64,36.716-549.65,36.716-549.44,39.196z
				 M-150.43,73.806c-16.1,2.31-31.11,10.92-41.42,23.47c-9.67,11.62-15.28,26.67-15.18,41.83c-0.24,15.24,5.32,30.4,14.95,42.18
				c9.94,12.28,24.35,20.94,39.97,23.57c14.95,2.52,30.75-0.3,43.88-7.93c14.11-8.05,25.06-21.48,30.08-36.94
				c5.31-16.25,4.02-34.56-3.63-49.86c-5.83-11.86-15.29-21.89-26.77-28.42C-121.11,74.486-136.11,71.686-150.43,73.806z
				 M-364.38,77.626c-14.29,4.8-26.36,15.21-34.08,28.07c-8.18,13.5-11.34,30.02-8.43,45.56c2.59,14.91,10.84,28.57,22.33,38.33
				c13.22,11.35,31.23,16.82,48.54,15.08c11.18-1.06,21.72-5.58,31.13-11.55c1.23,4.14,3.11,8.9,7.6,10.38
				c5.56,1.78,11.49,0.85,17.22,1.06c1.84,0.25,2.79-1.79,2.66-3.33c-0.22-40.31-0.03-80.64-0.07-120.95
				c0.1-2.47-2.55-3.08-4.5-2.74c-6.51,0.41-13.04-0.3-19.53,0.24c-3.65,0.68-2.54,5.4-3.33,8.1c-4.6-2.89-9.31-5.63-14.39-7.58
				C-333.54,72.546-349.86,72.676-364.38,77.626z"/>
		</g>
	</g>
	<g>
		<path fill="#0052CA" d="M-713-190.334l0.54,0.52c0.15,36.97,0.01,73.95,0.06,110.93c0.23,6.02,0.58,12.04,0.42,18.07
			c0,137.99,0,275.98,0,413.97c-0.06,11.66,0.24,23.34-0.42,34.99c0.12,37.01-0.22,74.04,0.17,111.04l-0.77,0.26V-190.334z"/>
	</g>
	<g>
		<path fill="#0569FB" d="M-254.2,35.146c8.4-0.24,16.81-0.07,25.22-0.12c1.38-0.17,3.53,0.17,3.13,2.11
			c0.01,54.66-0.13,109.33,0.07,163.98c0.21,2.33-1.94,3.97-4.15,3.5c-6.23-0.55-12.65,0.86-18.73-0.97
			c-4.04-1.24-5.99-5.62-5.94-9.58c-0.06-50.3,0-100.61-0.03-150.92C-254.65,40.476-255,37.736-254.2,35.146z"/>
		<g>
			<path fill="#0569FB" d="M-364.38,77.626c14.52-4.95,30.84-5.08,45.15,0.67c5.08,1.95,9.79,4.69,14.39,7.58
				c0.79-2.7-0.32-7.42,3.33-8.1c6.49-0.54,13.02,0.17,19.53-0.24c1.95-0.34,4.6,0.27,4.5,2.74c0.04,40.31-0.15,80.64,0.07,120.95
				c0.13,1.54-0.82,3.58-2.66,3.33c-5.73-0.21-11.66,0.72-17.22-1.06c-4.49-1.48-6.37-6.24-7.6-10.38
				c-9.41,5.97-19.95,10.49-31.13,11.55c-17.31,1.74-35.32-3.73-48.54-15.08c-11.49-9.76-19.74-23.42-22.33-38.33
				c-2.91-15.54,0.25-32.06,8.43-45.56C-390.74,92.836-378.67,82.426-364.38,77.626z M-350.56,101.726
				c-10.57,2.15-19.97,9.11-25.3,18.46c-4.86,8.38-6.28,18.61-4.09,28.03c2.17,9.55,8.14,18.19,16.37,23.52
				c8.61,5.72,19.61,7.65,29.65,5.24c10.96-2.51,20.53-10.2,25.52-20.24c4.73-9.24,5.36-20.43,1.89-30.2
				C-312.39,108.836-332.35,97.546-350.56,101.726z"/>
		</g>
	</g>
	<g>
		<path fill="#0468FB" d="M-549.44,39.196c-0.21-2.48,2.8-2.48,4.51-2.49c37.99,0.23,75.99,0.1,113.98,0.11
			c4.67,0.02,9.37-0.44,14.02,0.13c2.36,0.43,1.77,3.49,1.78,5.24c-0.36,8.13-3.03,16.21-8.11,22.62
			c-26.24,32.5-51.98,65.41-78,98.09c-3.58,4.69-7.57,9.09-10.75,14.08c3.65,0.47,7.34,0.19,11.01,0.23c27.02,0.01,54.05,0,81.08,0
			c2.36-0.33,5.41,1.04,4.84,3.88c-0.56,6.72,1.59,14.88-3.82,20.16c-2.99,2.77-7.24,3.37-11.15,3.37
			c-39.63-0.02-79.26-0.01-118.88,0c-1.78,0.12-3.97-0.55-4.37-2.53c-1.21-9.1,1.81-18.48,7.61-25.51
			c25.55-31.54,50.91-63.22,76.32-94.86c3.95-5.17,8.4-9.97,11.97-15.43c-5.82-0.9-11.71,0.02-17.57-0.35
			c-23.37-0.5-46.76,0.13-70.14,0.03c-1.83,0.11-4.49-0.62-4.37-2.92C-549.45,55.096-549.49,47.146-549.44,39.196z"/>
	</g>
	<g>
		<g>
			<path fill="#0568FB" d="M-150.43,73.806c14.32-2.12,29.32,0.68,41.88,7.9c11.48,6.53,20.94,16.56,26.77,28.42
				c7.65,15.3,8.94,33.61,3.63,49.86c-5.02,15.46-15.97,28.89-30.08,36.94c-13.13,7.63-28.93,10.45-43.88,7.93
				c-15.62-2.63-30.03-11.29-39.97-23.57c-9.63-11.78-15.19-26.94-14.95-42.18c-0.1-15.16,5.51-30.21,15.18-41.83
				C-181.54,84.726-166.53,76.116-150.43,73.806z M-148.79,101.406c-13.22,2.51-24.69,12.48-28.87,25.29
				c-5.42,15.46-0.01,34.07,13.25,43.84c9.36,7.2,22.1,9.51,33.47,6.49c9.92-2.53,18.66-9.28,23.64-18.22
				c4.88-8.59,6.22-19.04,3.95-28.63c-2.24-9.74-8.46-18.5-16.98-23.75C-128.7,101.156-139.13,99.486-148.79,101.406z"/>
		</g>
	</g>
	<g>
		<path fill="#FBFDFE" d="M-350.56,101.726c18.21-4.18,38.17,7.11,44.04,24.81c3.47,9.77,2.84,20.96-1.89,30.2
			c-4.99,10.04-14.56,17.73-25.52,20.24c-10.04,2.41-21.04,0.48-29.65-5.24c-8.23-5.33-14.2-13.97-16.37-23.52
			c-2.19-9.42-0.77-19.65,4.09-28.03C-370.53,110.836-361.13,103.876-350.56,101.726z"/>
		<path fill="#FBFDFE" d="M-148.79,101.406c9.66-1.92,20.09-0.25,28.46,5.02c8.52,5.25,14.74,14.01,16.98,23.75
			c2.27,9.59,0.93,20.04-3.95,28.63c-4.98,8.94-13.72,15.69-23.64,18.22c-11.37,3.02-24.11,0.71-33.47-6.49
			c-13.26-9.77-18.67-28.38-13.25-43.84C-173.48,113.886-162.01,103.916-148.79,101.406z"/>
	</g>
	<g>
		<path fill="#015BDF" d="M-56.95,354.266c13.5-9.88,25.69-21.42,36.95-33.75v178.68c-0.5,0.34-1.49,1.02-1.98,1.36
			c-16.7-0.14-33.41,0.43-50.09-0.43c-137.82,0.05-275.65-0.04-413.47,0.04c-3.98-6.06-9.92-10.41-14.58-15.89
			c-8.02-9.27-17.25-17.4-25.27-26.67c-8.03-8.64-16.75-16.62-24.53-25.48c-11.18-11.81-23.05-22.96-33.93-35.05
			c-5.91-6.15-11.92-12.18-17.85-18.3c28.25,2.55,56.86-2.52,82.99-13.35c2.57-1,5.6-2.79,8.16-0.72
			c25.85,16.29,54,28.8,83.23,37.65c43.81,13.19,89.61,19.39,135.32,19.69c44.93-0.17,89.94-6.03,133.11-18.6
			C-122.58,392.696-87.54,376.736-56.95,354.266z"/>
	</g>
	<g>
		<path fill="#001B42" d="M-21.98,500.556c0.49-0.34,1.48-1.02,1.98-1.36v1.96h-1.5L-21.98,500.556z"/>
	</g>
	<g>
		<path fill="#0148B2" d="M-711.02,500.596c15.68,0.47,31.34-0.76,47.03-0.34c59.48-0.06,118.97,0.11,178.45-0.09
			c137.82-0.08,275.65,0.01,413.47-0.04c16.68,0.86,33.39,0.29,50.09,0.43l0.48,0.6h-690.01L-711.02,500.596z"/>
	</g>
</g>
<g>
	<g>
		<path fill="#0068FF" d="M57.616,1.567c10.59-1.67,21.36-1.68,32.06-1.44l-0.92,0.85c-14,9.17-25.61,21.76-34,36.21
			c-16.82,28.93-22.95,63.14-21.56,96.3c1.38,27,7.86,54.15,21.6,77.62c2.3,4.2,6.13,7.91,6.19,13.01
			c0.43,10.94-4.98,21.25-12.3,29.07c0.48,0.5,0.95,1,1.43,1.5c6.85,7.48,14.16,14.51,21.12,21.89
			c9.89,11.18,21.16,21.08,30.85,32.46c-16.12,0.24-32.43,0.99-48.36-2.02c-20.05-3.89-37.85-17.79-46.35-36.37
			c-5.15-10.74-6.69-22.75-7.09-34.52c-0.01-54.34-0.01-108.67,0-163c0.22-18.16,5.03-37.16,17.81-50.63
			C28.216,11.087,42.546,3.667,57.616,1.567z"/>
		<path fill="#0068FF" d="M204.436,101.347c4.29,0,8.58,0,12.88,0c-0.07,25.13-0.07,50.27,0,75.4c-4.2-0.59-11.19,2.1-12.77-3.49
			C204.286,149.297,204.526,125.317,204.436,101.347z"/>
		<path fill="#0068FF" d="M73.196,102.237c19.96-0.02,39.9-0.15,59.85-0.01c-0.14,3.91-0.36,8.17-2.98,11.33
			c-13.64,16.98-26.99,34.18-40.62,51.16c14.49,0.09,28.98,0.03,43.47,0.03c-0.27,3.39,0.92,7.34-1.28,10.28
			c-1.38,1.9-3.88,1.73-5.95,1.75c-18.13-0.1-36.26,0.09-54.38-0.1c0.05-3.83,0.09-8.07,2.77-11.12
			c13.48-16.91,27.12-33.7,40.54-50.65c-13.79,0.02-27.59-0.09-41.38,0.06C73.146,110.727,73.176,106.477,73.196,102.237z"/>
		<g>
			<path fill="#0068FF" d="M249.246,118.877c14.36-3.21,29.94,6.22,33.87,20.36c4.93,14.71-4.07,32.2-18.94,36.68
				c-12.63,4.45-27.75-1.36-34.3-13c-5.14-8.6-5.45-19.86-0.78-28.71C233.056,126.397,240.706,120.687,249.246,118.877z
				 M249.006,131.617c-8.76,3.09-13.48,13.75-10.06,22.36c2.83,8.14,12.36,13.12,20.64,10.62c9.45-2.26,15.16-13.33,11.81-22.4
				C268.596,133.217,257.746,128.037,249.006,131.617z"/>
		</g>
		<g>
			<path fill="#0068FF" d="M142.866,129.347c6.91-8.56,19.01-12.78,29.67-9.73c3.52,0.89,6.71,2.65,9.79,4.52
				c-0.03-0.94-0.1-2.81-0.13-3.75c4.03-0.02,8.05-0.01,12.08-0.03c-0.02,18.8-0.04,37.6,0.01,56.41c-2.96-0.08-5.97,0.27-8.88-0.33
				c-2.04-0.83-2.67-3.06-3.48-4.88c-11.12,8.64-28.59,6.68-37.83-3.84C134.246,157.527,133.736,140.167,142.866,129.347z
				 M159.146,131.867c-9.26,3.26-13.75,15.19-9.06,23.79c4,8.38,15.26,11.9,23.31,7.28c7.47-3.92,10.92-13.65,7.71-21.43
				C177.996,133.047,167.506,128.307,159.146,131.867z"/>
		</g>
	</g>
	<g>
		<g>
			<path fill="#FFFFFF" d="M88.756,0.977c2.24-0.64,4.58-0.84,6.9-0.91c39.99,0.15,79.98-0.02,119.97,0.05
				c10.69,0.13,21.44-0.59,32.05,1.04c14.69,1.12,28.83,7.34,39.76,17.17c13.72,13.11,21.04,31.99,21.27,50.82
				c0.01,53.01-0.02,106.06,0.03,159.05c-0.14,0.31-0.41,0.95-0.55,1.27c-14.25,15.94-33.41,26.73-53.44,33.71
				c-26.99,9.2-55.9,12.16-84.27,10c-28.37-2.44-56.96-9.85-81.02-25.53c-12.3,5.47-25.87,8.15-39.34,7.04
				c-0.48-0.5-0.95-1-1.43-1.5c7.32-7.82,12.73-18.13,12.3-29.07c-0.06-5.1-3.89-8.81-6.19-13.01
				c-13.74-23.47-20.22-50.62-21.6-77.62c-1.39-33.16,4.74-67.37,21.56-96.3C63.146,22.737,74.756,10.147,88.756,0.977z
				 M204.436,101.347c0.09,23.97-0.15,47.95,0.11,71.91c1.58,5.59,8.57,2.9,12.77,3.49c-0.07-25.13-0.07-50.27,0-75.4
				C213.016,101.347,208.726,101.347,204.436,101.347z M73.196,102.237c-0.02,4.24-0.05,8.49,0.04,12.73
				c13.79-0.15,27.59-0.04,41.38-0.06c-13.42,16.95-27.06,33.74-40.54,50.65c-2.68,3.05-2.72,7.29-2.77,11.12
				c18.12,0.19,36.25,0,54.38,0.1c2.07-0.02,4.57,0.15,5.95-1.75c2.2-2.94,1.01-6.89,1.28-10.28c-14.49,0-28.98,0.06-43.47-0.03
				c13.63-16.98,26.98-34.18,40.62-51.16c2.62-3.16,2.84-7.42,2.98-11.33C113.096,102.087,93.156,102.217,73.196,102.237z
				 M249.246,118.877c-8.54,1.81-16.19,7.52-20.15,15.33c-4.67,8.85-4.36,20.11,0.78,28.71c6.55,11.64,21.67,17.45,34.3,13
				c14.87-4.48,23.87-21.97,18.94-36.68C279.186,125.097,263.606,115.667,249.246,118.877z M142.866,129.347
				c-9.13,10.82-8.62,28.18,1.23,38.37c9.24,10.52,26.71,12.48,37.83,3.84c0.81,1.82,1.44,4.05,3.48,4.88
				c2.91,0.6,5.92,0.25,8.88,0.33c-0.05-18.81-0.03-37.61-0.01-56.41c-4.03,0.02-8.05,0.01-12.08,0.03c0.03,0.94,0.1,2.81,0.13,3.75
				c-3.08-1.87-6.27-3.63-9.79-4.52C161.876,116.567,149.776,120.787,142.866,129.347z"/>
		</g>
		<path fill="#FFFFFF" d="M159.146,131.867c8.36-3.56,18.85,1.18,21.96,9.64c3.21,7.78-0.24,17.51-7.71,21.43
			c-8.05,4.62-19.31,1.1-23.31-7.28C145.396,147.057,149.886,135.127,159.146,131.867z"/>
		<path fill="#FFFFFF" d="M249.006,131.617c8.74-3.58,19.59,1.6,22.39,10.58c3.35,9.07-2.36,20.14-11.81,22.4
			c-8.28,2.5-17.81-2.48-20.64-10.62C235.526,145.367,240.246,134.707,249.006,131.617z"/>
	</g>
	<g>
		<path fill="#005BE0" d="M308.186,229.467l0.79-0.86c0.41,15.63-1.28,31.94-8.95,45.85c-8.92,16.32-25.1,28.44-43.3,32.32
			c-10.21,2.11-20.68,2.58-31.08,2.45c-31.99,0.01-63.98,0-95.97,0.01c-9.2-0.15-18.42,0.28-27.59-0.2
			c-9.69-11.38-20.96-21.28-30.85-32.46c-6.96-7.38-14.27-14.41-21.12-21.89c13.47,1.11,27.04-1.57,39.34-7.04
			c24.06,15.68,52.65,23.09,81.02,25.53c28.37,2.16,57.28-0.8,84.27-10C274.776,256.197,293.936,245.407,308.186,229.467z"/>
	</g>
</g>
</svg>
