<svg xmlns="http://www.w3.org/2000/svg" xmlns:xlink="http://www.w3.org/1999/xlink" zoomAndPan="magnify" preserveAspectRatio="xMidYMid meet" version="1.0" viewBox="50.81 325.94 716.99 136.14"><defs><g/></defs><g fill="#000000" fill-opacity="1"><g transform="translate(42.414467, 459.565089)"><g><path d="M 40.28125 -17.828125 C 40.28125 -13.359375 40.875 -10.109375 42.0625 -8.078125 C 43.25 -6.046875 45.554688 -4.609375 48.984375 -3.765625 C 52.410156 -2.929688 57.828125 -2.515625 65.234375 -2.515625 C 65.648438 -2.515625 65.859375 -2.09375 65.859375 -1.25 C 65.859375 -0.414062 65.648438 0 65.234375 0 C 59.503906 0 55.03125 -0.0664062 51.8125 -0.203125 L 33.5625 -0.421875 L 19.515625 -0.203125 C 16.847656 -0.0664062 13.28125 0 8.8125 0 C 8.53125 0 8.390625 -0.414062 8.390625 -1.25 C 8.390625 -2.09375 8.53125 -2.515625 8.8125 -2.515625 C 14.125 -2.515625 18.003906 -2.863281 20.453125 -3.5625 C 22.898438 -4.257812 24.539062 -5.625 25.375 -7.65625 C 26.21875 -9.6875 26.640625 -12.796875 26.640625 -16.984375 L 26.640625 -114.109375 C 26.640625 -118.304688 26.21875 -121.382812 25.375 -123.34375 C 24.539062 -125.300781 22.898438 -126.664062 20.453125 -127.4375 C 18.003906 -128.207031 14.125 -128.59375 8.8125 -128.59375 C 8.53125 -128.59375 8.390625 -129.007812 8.390625 -129.84375 C 8.390625 -130.6875 8.53125 -131.109375 8.8125 -131.109375 L 19.296875 -130.890625 C 25.171875 -130.609375 29.859375 -130.46875 33.359375 -130.46875 C 36.847656 -130.46875 40.757812 -130.679688 45.09375 -131.109375 C 46.769531 -131.109375 49.425781 -131.210938 53.0625 -131.421875 C 56.707031 -131.628906 59.859375 -131.734375 62.515625 -131.734375 C 75.378906 -131.734375 85.691406 -128.863281 93.453125 -123.125 C 101.210938 -117.394531 105.09375 -108.65625 105.09375 -96.90625 C 105.09375 -87.675781 102.816406 -79.914062 98.265625 -73.625 C 93.722656 -67.332031 87.882812 -62.644531 80.75 -59.5625 C 73.625 -56.488281 66.285156 -54.953125 58.734375 -54.953125 C 54.679688 -54.953125 51.328125 -55.300781 48.671875 -56 C 48.242188 -56 48.03125 -56.351562 48.03125 -57.0625 C 48.03125 -57.476562 48.132812 -57.894531 48.34375 -58.3125 C 48.5625 -58.726562 48.804688 -58.867188 49.078125 -58.734375 C 51.316406 -58.171875 53.835938 -57.890625 56.640625 -57.890625 C 65.867188 -57.890625 73.660156 -60.894531 80.015625 -66.90625 C 86.378906 -72.925781 89.5625 -81.597656 89.5625 -92.921875 C 89.5625 -103.972656 86.554688 -112.679688 80.546875 -119.046875 C 74.535156 -125.410156 66.84375 -128.59375 57.46875 -128.59375 C 52.4375 -128.59375 48.800781 -128.3125 46.5625 -127.75 C 44.332031 -127.1875 42.726562 -125.890625 41.75 -123.859375 C 40.769531 -121.835938 40.28125 -118.445312 40.28125 -113.6875 Z M 40.28125 -17.828125 "/></g></g></g><g fill="#000000" fill-opacity="1"><g transform="translate(156.317921, 459.565089)"><g><path d="M 146.625 -2.515625 C 147.1875 -2.515625 147.46875 -2.09375 147.46875 -1.25 C 147.46875 -0.414062 147.1875 0 146.625 0 C 143.96875 0 139.84375 -0.140625 134.25 -0.421875 C 128.65625 -0.703125 124.597656 -0.84375 122.078125 -0.84375 C 119.003906 -0.84375 115.09375 -0.703125 110.34375 -0.421875 C 105.863281 -0.140625 102.4375 0 100.0625 0 C 99.5 0 99.21875 -0.414062 99.21875 -1.25 C 99.21875 -2.09375 99.5 -2.515625 100.0625 -2.515625 C 105.226562 -2.515625 109 -3.003906 111.375 -3.984375 C 113.757812 -4.960938 114.953125 -6.640625 114.953125 -9.015625 C 114.953125 -10.972656 114.039062 -13.984375 112.21875 -18.046875 L 88.109375 -69.4375 L 48.453125 -69.4375 L 30.421875 -26.640625 C 28.460938 -21.890625 27.484375 -17.972656 27.484375 -14.890625 C 27.484375 -6.640625 34.332031 -2.515625 48.03125 -2.515625 C 48.726562 -2.515625 49.078125 -2.09375 49.078125 -1.25 C 49.078125 -0.414062 48.726562 0 48.03125 0 C 45.519531 0 41.882812 -0.140625 37.125 -0.421875 C 31.8125 -0.703125 27.195312 -0.84375 23.28125 -0.84375 C 19.644531 -0.84375 15.453125 -0.703125 10.703125 -0.421875 C 6.503906 -0.140625 3.003906 0 0.203125 0 C -0.492188 0 -0.84375 -0.414062 -0.84375 -1.25 C -0.84375 -2.09375 -0.492188 -2.515625 0.203125 -2.515625 C 4.117188 -2.515625 7.441406 -3.25 10.171875 -4.71875 C 12.898438 -6.1875 15.488281 -8.773438 17.9375 -12.484375 C 20.382812 -16.191406 23.078125 -21.539062 26.015625 -28.53125 L 70.265625 -132.984375 C 70.546875 -133.410156 71.035156 -133.625 71.734375 -133.625 C 72.429688 -133.625 72.851562 -133.410156 73 -132.984375 L 122.5 -28.734375 C 127.257812 -18.390625 131.316406 -11.429688 134.671875 -7.859375 C 138.023438 -4.296875 142.007812 -2.515625 146.625 -2.515625 Z M 50.34375 -73.84375 L 86 -73.84375 L 67.125 -113.6875 Z M 50.34375 -73.84375 "/></g></g></g><g fill="#000000" fill-opacity="1"><g transform="translate(303.574306, 459.565089)"><g><path d="M 87.046875 -133.40625 C 93.765625 -133.40625 100.546875 -132.773438 107.390625 -131.515625 C 114.242188 -130.265625 119.703125 -128.445312 123.765625 -126.0625 C 125.023438 -125.507812 125.828125 -124.914062 126.171875 -124.28125 C 126.523438 -123.65625 126.769531 -122.570312 126.90625 -121.03125 L 129.21875 -97.546875 C 129.21875 -97.117188 128.867188 -96.867188 128.171875 -96.796875 C 127.472656 -96.734375 127.050781 -96.910156 126.90625 -97.328125 C 123.832031 -108.097656 118.132812 -116.035156 109.8125 -121.140625 C 101.488281 -126.242188 91.175781 -128.796875 78.875 -128.796875 C 68.25 -128.796875 58.945312 -126.453125 50.96875 -121.765625 C 43 -117.078125 36.847656 -110.46875 32.515625 -101.9375 C 28.179688 -93.414062 26.015625 -83.5625 26.015625 -72.375 C 26.015625 -59.363281 28.703125 -47.332031 34.078125 -36.28125 C 39.460938 -25.238281 46.734375 -16.5 55.890625 -10.0625 C 65.054688 -3.632812 74.953125 -0.421875 85.578125 -0.421875 C 95.648438 -0.421875 104.390625 -3.179688 111.796875 -8.703125 C 119.210938 -14.222656 124.878906 -22.71875 128.796875 -34.1875 C 128.796875 -34.613281 129.078125 -34.828125 129.640625 -34.828125 C 130.054688 -34.828125 130.4375 -34.753906 130.78125 -34.609375 C 131.132812 -34.472656 131.3125 -34.265625 131.3125 -33.984375 L 128.375 -10.28125 C 128.09375 -8.601562 127.773438 -7.519531 127.421875 -7.03125 C 127.078125 -6.539062 126.273438 -6.015625 125.015625 -5.453125 C 112.429688 -0.140625 99.148438 2.515625 85.171875 2.515625 C 68.390625 2.515625 54.367188 -0.875 43.109375 -7.65625 C 31.847656 -14.4375 23.5625 -23.070312 18.25 -33.5625 C 12.9375 -44.050781 10.28125 -55.097656 10.28125 -66.703125 C 10.28125 -79.566406 13.84375 -91.101562 20.96875 -101.3125 C 28.101562 -111.519531 37.546875 -119.421875 49.296875 -125.015625 C 61.046875 -130.609375 73.628906 -133.40625 87.046875 -133.40625 Z M 87.046875 -133.40625 "/></g></g></g><g fill="#000000" fill-opacity="1"><g transform="translate(443.908392, 459.565089)"><g><path d="M 41.75 -16.984375 C 41.75 -12.796875 42.164062 -9.6875 43 -7.65625 C 43.84375 -5.625 45.488281 -4.257812 47.9375 -3.5625 C 50.382812 -2.863281 54.265625 -2.515625 59.578125 -2.515625 C 59.992188 -2.515625 60.203125 -2.09375 60.203125 -1.25 C 60.203125 -0.414062 59.992188 0 59.578125 0 C 55.378906 0 52.019531 -0.0664062 49.5 -0.203125 L 34.609375 -0.421875 L 20.140625 -0.203125 C 17.617188 -0.0664062 14.191406 0 9.859375 0 C 9.441406 0 9.234375 -0.414062 9.234375 -1.25 C 9.234375 -2.09375 9.441406 -2.515625 9.859375 -2.515625 C 15.171875 -2.515625 19.050781 -2.863281 21.5 -3.5625 C 23.945312 -4.257812 25.625 -5.625 26.53125 -7.65625 C 27.445312 -9.6875 27.90625 -12.796875 27.90625 -16.984375 L 27.90625 -114.109375 C 27.90625 -118.304688 27.445312 -121.382812 26.53125 -123.34375 C 25.625 -125.300781 23.945312 -126.664062 21.5 -127.4375 C 19.050781 -128.207031 15.171875 -128.59375 9.859375 -128.59375 C 9.441406 -128.59375 9.234375 -129.007812 9.234375 -129.84375 C 9.234375 -130.6875 9.441406 -131.109375 9.859375 -131.109375 L 20.140625 -130.890625 C 26.015625 -130.609375 30.835938 -130.46875 34.609375 -130.46875 C 38.804688 -130.46875 43.84375 -130.609375 49.71875 -130.890625 L 59.578125 -131.109375 C 59.992188 -131.109375 60.203125 -130.6875 60.203125 -129.84375 C 60.203125 -129.007812 59.992188 -128.59375 59.578125 -128.59375 C 54.398438 -128.59375 50.585938 -128.171875 48.140625 -127.328125 C 45.691406 -126.484375 44.015625 -125.046875 43.109375 -123.015625 C 42.203125 -120.992188 41.75 -117.882812 41.75 -113.6875 Z M 41.75 -16.984375 "/></g></g></g><g fill="#000000" fill-opacity="1"><g transform="translate(513.551021, 459.565089)"><g><path d="M 95.65625 -103.421875 C 95.65625 -102.992188 95.304688 -102.742188 94.609375 -102.671875 C 93.910156 -102.609375 93.488281 -102.785156 93.34375 -103.203125 C 92.925781 -110.617188 90.6875 -116.390625 86.625 -120.515625 C 82.570312 -124.640625 77.191406 -126.703125 70.484375 -126.703125 L 57.6875 -126.703125 C 52.925781 -126.703125 49.359375 -126.347656 46.984375 -125.640625 C 44.609375 -124.941406 42.960938 -123.679688 42.046875 -121.859375 C 41.140625 -120.046875 40.6875 -117.394531 40.6875 -113.90625 L 40.6875 -67.96875 L 61.875 -67.96875 C 69.289062 -67.96875 74.570312 -69.117188 77.71875 -71.421875 C 80.863281 -73.734375 82.4375 -77.472656 82.4375 -82.640625 C 82.4375 -82.921875 82.851562 -83.0625 83.6875 -83.0625 C 84.53125 -83.0625 84.953125 -82.921875 84.953125 -82.640625 L 84.75 -65.65625 C 84.75 -61.601562 84.816406 -58.523438 84.953125 -56.421875 L 85.171875 -46.359375 C 85.171875 -46.078125 84.75 -45.9375 83.90625 -45.9375 C 83.0625 -45.9375 82.640625 -46.078125 82.640625 -46.359375 C 82.640625 -52.515625 80.992188 -56.921875 77.703125 -59.578125 C 74.421875 -62.234375 68.9375 -63.5625 61.25 -63.5625 L 40.6875 -63.5625 L 40.6875 -17.828125 C 40.6875 -13.359375 41.28125 -10.109375 42.46875 -8.078125 C 43.664062 -6.046875 46.007812 -4.609375 49.5 -3.765625 C 53 -2.929688 58.523438 -2.515625 66.078125 -2.515625 C 66.492188 -2.515625 66.703125 -2.09375 66.703125 -1.25 C 66.703125 -0.414062 66.492188 0 66.078125 0 C 60.335938 0 55.863281 -0.0664062 52.65625 -0.203125 L 33.765625 -0.421875 L 19.515625 -0.203125 C 16.992188 -0.0664062 13.425781 0 8.8125 0 C 8.53125 0 8.390625 -0.414062 8.390625 -1.25 C 8.390625 -2.09375 8.53125 -2.515625 8.8125 -2.515625 C 14.125 -2.515625 18.035156 -2.863281 20.546875 -3.5625 C 23.066406 -4.257812 24.78125 -5.625 25.6875 -7.65625 C 26.601562 -9.6875 27.0625 -12.796875 27.0625 -16.984375 L 27.0625 -114.109375 C 27.0625 -118.304688 26.601562 -121.382812 25.6875 -123.34375 C 24.78125 -125.300781 23.101562 -126.664062 20.65625 -127.4375 C 18.207031 -128.207031 14.328125 -128.59375 9.015625 -128.59375 C 8.734375 -128.59375 8.59375 -129.007812 8.59375 -129.84375 C 8.59375 -130.6875 8.734375 -131.109375 9.015625 -131.109375 L 93.34375 -131.109375 C 94.601562 -131.109375 95.234375 -130.476562 95.234375 -129.21875 Z M 95.65625 -103.421875 "/></g></g></g><g fill="#000000" fill-opacity="1"><g transform="translate(620.322399, 459.565089)"><g><path d="M 146.625 -2.515625 C 147.1875 -2.515625 147.46875 -2.09375 147.46875 -1.25 C 147.46875 -0.414062 147.1875 0 146.625 0 C 143.96875 0 139.84375 -0.140625 134.25 -0.421875 C 128.65625 -0.703125 124.597656 -0.84375 122.078125 -0.84375 C 119.003906 -0.84375 115.09375 -0.703125 110.34375 -0.421875 C 105.863281 -0.140625 102.4375 0 100.0625 0 C 99.5 0 99.21875 -0.414062 99.21875 -1.25 C 99.21875 -2.09375 99.5 -2.515625 100.0625 -2.515625 C 105.226562 -2.515625 109 -3.003906 111.375 -3.984375 C 113.757812 -4.960938 114.953125 -6.640625 114.953125 -9.015625 C 114.953125 -10.972656 114.039062 -13.984375 112.21875 -18.046875 L 88.109375 -69.4375 L 48.453125 -69.4375 L 30.421875 -26.640625 C 28.460938 -21.890625 27.484375 -17.972656 27.484375 -14.890625 C 27.484375 -6.640625 34.332031 -2.515625 48.03125 -2.515625 C 48.726562 -2.515625 49.078125 -2.09375 49.078125 -1.25 C 49.078125 -0.414062 48.726562 0 48.03125 0 C 45.519531 0 41.882812 -0.140625 37.125 -0.421875 C 31.8125 -0.703125 27.195312 -0.84375 23.28125 -0.84375 C 19.644531 -0.84375 15.453125 -0.703125 10.703125 -0.421875 C 6.503906 -0.140625 3.003906 0 0.203125 0 C -0.492188 0 -0.84375 -0.414062 -0.84375 -1.25 C -0.84375 -2.09375 -0.492188 -2.515625 0.203125 -2.515625 C 4.117188 -2.515625 7.441406 -3.25 10.171875 -4.71875 C 12.898438 -6.1875 15.488281 -8.773438 17.9375 -12.484375 C 20.382812 -16.191406 23.078125 -21.539062 26.015625 -28.53125 L 70.265625 -132.984375 C 70.546875 -133.410156 71.035156 -133.625 71.734375 -133.625 C 72.429688 -133.625 72.851562 -133.410156 73 -132.984375 L 122.5 -28.734375 C 127.257812 -18.390625 131.316406 -11.429688 134.671875 -7.859375 C 138.023438 -4.296875 142.007812 -2.515625 146.625 -2.515625 Z M 50.34375 -73.84375 L 86 -73.84375 L 67.125 -113.6875 Z M 50.34375 -73.84375 "/></g></g></g></svg>